<svg width="23" height="24" viewBox="0 0 23 24" fill="none" xmlns="http://www.w3.org/2000/svg">
<circle cx="11.5" cy="12" r="11.5" fill="#E5F4FD"/>
<g clip-path="url(#clip0_2_53)">
<path d="M13.6562 6.825C13.5419 6.825 13.4322 6.87043 13.3513 6.95131C13.2704 7.03218 13.225 7.14187 13.225 7.25625C13.225 8.528 12.1111 8.98125 11.0687 8.98125H8.05C7.5925 8.98125 7.15374 9.16299 6.83024 9.48649C6.50674 9.80999 6.325 10.2487 6.325 10.7062V11.5687C6.32594 11.827 6.38514 12.0816 6.49819 12.3138C6.61124 12.5459 6.77522 12.7495 6.97791 12.9095L8.51833 16.3474C8.62789 16.5937 8.80648 16.803 9.0325 16.9498C9.25852 17.0967 9.52227 17.1749 9.79182 17.175C10.0063 17.1749 10.2173 17.1211 10.4057 17.0186C10.5941 16.9161 10.7538 16.7681 10.8704 16.5881C10.987 16.408 11.0567 16.2017 11.0732 15.9879C11.0897 15.7741 11.0524 15.5595 10.9648 15.3637L10.0161 13.2937H11.0687C12.1111 13.2937 13.225 13.747 13.225 15.0187C13.225 15.1331 13.2704 15.2428 13.3513 15.3237C13.4322 15.4046 13.5419 15.45 13.6562 15.45C13.7706 15.45 13.8803 15.4046 13.9612 15.3237C14.0421 15.2428 14.0875 15.1331 14.0875 15.0187V7.25625C14.0875 7.14187 14.0421 7.03218 13.9612 6.95131C13.8803 6.87043 13.7706 6.825 13.6562 6.825V6.825ZM10.1791 15.7169C10.2076 15.7814 10.2197 15.8521 10.214 15.9224C10.2084 15.9927 10.1853 16.0605 10.1469 16.1197C10.1084 16.1788 10.0558 16.2274 9.99378 16.2611C9.93179 16.2948 9.86237 16.3124 9.79182 16.3125C9.68892 16.3124 9.58825 16.2825 9.50205 16.2263C9.41585 16.1701 9.34782 16.0901 9.30623 15.996L8.09528 13.2937H9.06732L10.1791 15.7169ZM13.225 13.1212C12.6089 12.6465 11.846 12.4024 11.0687 12.4312H8.05C7.82125 12.4312 7.60187 12.3404 7.44012 12.1786C7.27837 12.0169 7.1875 11.7975 7.1875 11.5687V10.7062C7.1875 10.4775 7.27837 10.2581 7.44012 10.0964C7.60187 9.93462 7.82125 9.84375 8.05 9.84375H11.0687C11.8458 9.8732 12.6086 9.62986 13.225 9.1559V13.1212ZM16.6319 13.4887C16.6066 13.5394 16.5715 13.5846 16.5288 13.6217C16.486 13.6589 16.4363 13.6873 16.3825 13.7052C16.3288 13.7231 16.272 13.7303 16.2155 13.7263C16.159 13.7223 16.1038 13.7072 16.0531 13.6819L15.1906 13.2506C15.0883 13.1995 15.0104 13.1098 14.9742 13.0013C14.9379 12.8927 14.9463 12.7742 14.9974 12.6719C15.0486 12.5695 15.1383 12.4917 15.2468 12.4554C15.3553 12.4192 15.4738 12.4276 15.5762 12.4787L16.4387 12.9099C16.5405 12.961 16.618 13.0503 16.6542 13.1584C16.6904 13.2664 16.6824 13.3844 16.6319 13.4865V13.4887ZM14.9974 9.60742C14.9721 9.55674 14.957 9.50156 14.953 9.44504C14.949 9.38852 14.9562 9.33176 14.9741 9.27802C14.992 9.22427 15.0204 9.17459 15.0576 9.1318C15.0947 9.08902 15.1399 9.05398 15.1906 9.02868L16.0531 8.59743C16.1555 8.54631 16.274 8.53794 16.3825 8.57417C16.4911 8.61041 16.5807 8.68827 16.6319 8.79063C16.683 8.893 16.6914 9.01148 16.6551 9.12002C16.6189 9.22855 16.541 9.31825 16.4387 9.36937L15.5762 9.80062C15.5255 9.82596 15.4703 9.84106 15.4138 9.84507C15.3573 9.84907 15.3005 9.8419 15.2468 9.82395C15.193 9.80601 15.1433 9.77765 15.1006 9.7405C15.0578 9.70335 15.0227 9.65812 14.9974 9.60742V9.60742ZM14.95 11.1375C14.95 11.0231 14.9954 10.9134 15.0763 10.8326C15.1572 10.7517 15.2669 10.7062 15.3812 10.7062H16.2437C16.3581 10.7062 16.4678 10.7517 16.5487 10.8326C16.6296 10.9134 16.675 11.0231 16.675 11.1375C16.675 11.2519 16.6296 11.3616 16.5487 11.4424C16.4678 11.5233 16.3581 11.5687 16.2437 11.5687H15.3812C15.2669 11.5687 15.1572 11.5233 15.0763 11.4424C14.9954 11.3616 14.95 11.2519 14.95 11.1375Z" fill="#1C1C1C"/>
</g>
<defs>
<clipPath id="clip0_2_53">
<rect width="10.35" height="10.35" fill="white" transform="translate(6.325 6.825)"/>
</clipPath>
</defs>
</svg>
